<svg id="Capa_1" data-name="Capa 1" xmlns="http://www.w3.org/2000/svg" viewBox="0 0 1001 1001"><defs><style>.cls-1{fill:#222249;stroke:#1d1d1b;stroke-miterlimit:10;}.cls-2{fill:#a7b1db;}.cls-3{fill:#d7790f;}</style></defs><rect class="cls-1" x="0.5" y="0.5" width="1000" height="1000" rx="180" ry="180"/><path class="cls-2" d="M498.71,642.38v71a9,9,0,0,1-8.95,8.95h-71a9,9,0,0,1-8.95-8.95v-71a9,9,0,0,1,8.95-9h71a9,9,0,0,1,8.95,9" transform="translate(1.5 0.5)"/><path class="cls-2" d="M410.21,287.13V624.66a9,9,0,0,1-8.95,9H330.31a9,9,0,0,1-8.95-9V376a9,9,0,0,0-8.95-8.95h-71a9,9,0,0,1-8.95-9V287.13a9,9,0,0,1,8.95-8.95H401.26a8.94,8.94,0,0,1,8.95,8.95" transform="translate(1.5 0.5)"/><path class="cls-3" d="M765.5,286.67v71a9,9,0,0,1-9,8.95H685.6a9,9,0,0,0-9,8.95V624.2a9,9,0,0,1-9,9h-71a9,9,0,0,1-9-9V286.67a9,9,0,0,1,9-8.95H756.55a9,9,0,0,1,9,8.95" transform="translate(1.5 0.5)"/></svg>